# xmcd
# 
# Track frame offsets:
#     150
#     23122
#     44062
#     64205
#     89075
#     111860
#     131412
#     146625
#     165845
#     184867
#     214352
#     241025
#     258662
#     278542
#     300582
# 
# Disc length: 4173
# 
# Revision: 2
# Processed by: cddbd v1.5.2PL0 Copyright (c) Steve Scherf et al.
# Submitted via: fre:ac v1.0.17
# 
DISCID=d9104b0f
DTITLE=Iwan Fals - Greatest Hits
DYEAR=1990
DGENRE=Pop-Folk
TTITLE0=Antara Aku, Kau Dan Bekas Pacarmu
TTITLE1=Buku Ini Aku Pinjam
TTITLE2=Mata Indah Bola Ping Pong
TTITLE3=Kemesraan
TTITLE4=Sarjana Muda
TTITLE5=Aku Sayang Kamu
TTITLE6=Kumenanti Seorang Kekasih
TTITLE7=Oemar Bakri
TTITLE8=Sore Tugu Pancoran
TTITLE9=Sumbang
TTITLE10=Ethiophia
TTITLE11=Galang Rambu Anarki
TTITLE12=Kereta Tiba Pukul Berapa
TTITLE13=Sugali
TTITLE14=Sebelum Kau Bosan
EXTD=
EXTT0=
EXTT1=
EXTT2=
EXTT3=
EXTT4=
EXTT5=
EXTT6=
EXTT7=
EXTT8=
EXTT9=
EXTT10=
EXTT11=
EXTT12=
EXTT13=
EXTT14=
PLAYORDER=
